<?xml version="1.0" standalone="no"?><!DOCTYPE svg PUBLIC "-//W3C//DTD SVG 1.1//EN" "http://www.w3.org/Graphics/SVG/1.1/DTD/svg11.dtd"><svg t="1695107196425" class="icon" viewBox="0 0 1024 1024" version="1.1" xmlns="http://www.w3.org/2000/svg" p-id="18728" xmlns:xlink="http://www.w3.org/1999/xlink" width="200" height="200"><path d="M798.4 715.2v-121.6h-22.4v121.6c-11.2 4.8-19.2 16-19.2 28.8s8 24 19.2 28.8V800h22.4v-27.2c11.2-4.8 19.2-16 19.2-28.8 0-14.4-8-25.6-19.2-28.8z m-11.2 35.2c-4.8 0-8-3.2-8-8s3.2-8 8-8 8 3.2 8 8c-1.6 4.8-4.8 8-8 8z" p-id="18729" fill="#004C97"></path><path d="M787.2 513.6c-20.8 0-40 3.2-59.2 8-11.2-19.2-30.4-36.8-52.8-49.6-8-4.8-14.4-8-24-11.2L528 417.6l-113.6 212.8h-48l-113.6-212.8-121.6 43.2c-35.2 12.8-62.4 35.2-80 65.6C36.8 550.4 12.8 665.6 8 779.2v11.2h555.2c22.4 102.4 113.6 180.8 224 180.8 126.4 0 228.8-102.4 228.8-228.8s-102.4-228.8-228.8-228.8zM32 768c6.4-110.4 28.8-211.2 40-230.4 14.4-25.6 38.4-44.8 65.6-54.4l104-36.8L352 652.8h75.2l112-206.4 104 36.8c8 3.2 14.4 6.4 20.8 9.6 12.8 8 30.4 20.8 41.6 36.8-86.4 33.6-147.2 116.8-147.2 214.4 0 8 0 17.6 1.6 25.6H32z m867.2 147.2l-11.2-19.2-19.2 11.2 11.2 19.2c-24 12.8-52.8 20.8-81.6 22.4v-22.4h-22.4v22.4c-28.8-1.6-56-9.6-81.6-22.4l11.2-19.2-20.8-11.2-11.2 19.2c-24-16-43.2-35.2-59.2-59.2l19.2-11.2-11.2-19.2-19.2 11.2c-12.8-24-20.8-52.8-22.4-81.6h22.4v-22.4h-22.4c1.6-28.8 9.6-56 22.4-81.6l19.2 11.2 11.2-19.2-19.2-11.2c16-24 35.2-43.2 59.2-59.2l11.2 19.2 19.2-11.2-11.2-19.2c24-12.8 52.8-20.8 81.6-22.4V560h22.4v-22.4c28.8 1.6 56 9.6 81.6 22.4l-11.2 19.2 19.2 11.2 11.2-19.2c24 16 43.2 35.2 59.2 59.2l-19.2 11.2 11.2 19.2 19.2-11.2c12.8 24 20.8 52.8 22.4 81.6h-22.4v22.4H992c-1.6 28.8-9.6 56-22.4 81.6l-19.2-11.2-11.2 19.2 19.2 11.2c-14.4 25.6-35.2 44.8-59.2 60.8zM390.4 400c96 0 174.4-78.4 174.4-174.4S486.4 51.2 390.4 51.2 216 129.6 216 225.6 294.4 400 390.4 400z m0-324.8c83.2 0 150.4 67.2 150.4 150.4s-67.2 150.4-150.4 150.4-150.4-67.2-150.4-150.4 67.2-150.4 150.4-150.4z" p-id="18730" fill="#004C97"></path></svg>