<?xml version="1.0" standalone="no"?><!DOCTYPE svg PUBLIC "-//W3C//DTD SVG 1.1//EN" "http://www.w3.org/Graphics/SVG/1.1/DTD/svg11.dtd"><svg t="1694240988373" class="icon" viewBox="0 0 1024 1024" version="1.1" xmlns="http://www.w3.org/2000/svg" p-id="11723" xmlns:xlink="http://www.w3.org/1999/xlink" width="200" height="200"><path d="M512 887.466667c-10.24 0-17.066667-6.826667-17.066667-17.066667 0-211.626667-75.093333-283.306667-150.186666-354.986667-58.026667-51.2-112.64-105.813333-119.466667-211.626666 0-10.24-3.413333-20.48-3.413333-30.72 0-150.186667 129.706667-273.066667 290.133333-273.066667s290.133333 122.88 290.133333 273.066667c0 10.24 0 20.48-3.413333 30.72-10.24 105.813333-64.853333 157.013333-119.466667 211.626666-75.093333 71.68-150.186667 143.36-150.186666 354.986667 0 10.24-6.826667 17.066667-17.066667 17.066667z m0-853.333334c-139.946667 0-256 105.813333-256 238.933334 0 10.24 0 17.066667 3.413333 27.306666 6.826667 95.573333 54.613333 139.946667 109.226667 191.146667s116.053333 109.226667 143.36 225.28c27.306667-112.64 88.746667-170.666667 143.36-225.28 54.613333-51.2 102.4-95.573333 109.226667-191.146667 0-10.24 3.413333-17.066667 3.413333-27.306666 0-133.12-116.053333-238.933333-256-238.933334z" fill="#004C97" p-id="11724"></path><path d="M512 409.6c-85.333333 0-153.6-68.266667-153.6-153.6S426.666667 102.4 512 102.4s153.6 68.266667 153.6 153.6-68.266667 153.6-153.6 153.6z m0-273.066667c-64.853333 0-119.466667 54.613333-119.466667 119.466667S447.146667 375.466667 512 375.466667s119.466667-54.613333 119.466667-119.466667S576.853333 136.533333 512 136.533333zM512 1024c-177.493333 0-358.4-40.96-358.4-119.466667 0-71.68 153.6-109.226667 286.72-116.053333 10.24 0 17.066667 6.826667 17.066667 17.066667s-6.826667 17.066667-17.066667 17.066666c-174.08 10.24-252.586667 54.613333-252.586667 81.92 0 34.133333 122.88 85.333333 324.266667 85.333334s324.266667-51.2 324.266667-85.333334c0-27.306667-81.92-71.68-252.586667-81.92-10.24 0-17.066667-10.24-17.066667-17.066666 0-10.24 6.826667-17.066667 17.066667-17.066667 133.12 6.826667 286.72 44.373333 286.72 116.053333 0 78.506667-180.906667 119.466667-358.4 119.466667z" fill="#004C97" p-id="11725"></path></svg>