<?xml version="1.0" standalone="no"?><!DOCTYPE svg PUBLIC "-//W3C//DTD SVG 1.1//EN" "http://www.w3.org/Graphics/SVG/1.1/DTD/svg11.dtd"><svg t="1696095180637" class="icon" viewBox="0 0 1024 1024" version="1.1" xmlns="http://www.w3.org/2000/svg" p-id="17910" xmlns:xlink="http://www.w3.org/1999/xlink" width="200" height="200"><path d="M528.64 958.72c-106.88 0-200.32-74.24-224-179.84-20.48-92.16 18.56-189.44 97.28-241.28 86.4-56.96 200.32-49.28 277.76 18.56 8.32 7.04 8.96 19.84 1.92 28.16-7.04 8.32-19.84 8.96-28.16 1.92-76.16-66.56-192-62.08-262.4 12.16-60.8 64-69.12 163.2-19.84 236.8 56.96 85.12 170.24 108.8 256.64 55.68 83.2-51.2 113.92-156.16 71.68-243.84-3.2-6.4-3.2-14.08 0.64-20.48 3.84-5.76 10.88-9.6 17.92-8.96 7.04 0.64 13.44 5.12 16.64 12.16 15.36 30.72 23.04 65.28 23.04 99.2 0.64 126.72-102.4 229.76-229.12 229.76z m0 0" fill="#2196F3" p-id="17911"></path><path d="M528.64 958.72c-68.48 0-104.96-118.4-104.96-229.76S460.8 499.2 528.64 499.2C597.12 499.2 633.6 617.6 633.6 728.96s-36.48 229.76-104.96 229.76z m0-419.84c-26.24 0-65.92 74.24-65.92 190.08 0 116.48 39.68 190.08 65.92 190.08 26.24 0 65.92-74.24 65.92-190.08 0-116.48-39.68-190.08-65.92-190.08z m0 0" fill="#2196F3" p-id="17912"></path><path d="M734.72 748.8H330.24c-7.04 0-13.44-3.84-17.28-9.6-3.2-6.4-3.2-13.44 0-19.84s10.24-9.6 17.28-9.6h403.2c8.96 0 17.92 5.76 19.84 14.72 3.84 12.8-5.76 24.32-18.56 24.32z m0 0" fill="#2196F3" p-id="17913"></path><path d="M447.36 390.4H200.96c-10.88 0-18.56-8.32-18.56-21.12 0-12.8 7.68-21.12 18.56-21.12h246.4c10.88 0 18.56 8.32 18.56 21.12-0.64 12.8-7.68 21.12-18.56 21.12z m258.56 0H632.32c-10.88 0-18.56-8.32-18.56-21.12 0-12.8 7.68-21.12 18.56-21.12h74.24c10.88 0 18.56 8.32 18.56 21.12-0.64 12.8-7.68 21.12-19.2 21.12z m159.36 0h-74.24c-10.88 0-18.56-8.32-18.56-21.12 0-12.8 7.68-21.12 18.56-21.12h74.24c10.88 0 18.56 8.32 18.56 21.12 0 12.8-7.68 21.12-18.56 21.12zM232.96 206.08c-22.4 0-39.68-18.56-37.12-41.6 1.92-17.28 16-30.72 32.64-32.64 23.04-2.56 41.6 14.72 41.6 37.12 0 21.12-16 37.12-37.12 37.12z m0-53.12c-8.32 0-17.28 7.04-16 17.92 0.64 8.96 8.96 14.72 17.92 14.08 8.96-0.64 14.08-7.04 14.08-16 0-9.6-6.4-16-16-16z m76.16 53.12c-22.4 0-39.68-18.56-37.12-41.6 1.92-17.28 16-30.72 32.64-32.64 23.04-2.56 41.6 14.72 41.6 37.12 0 21.12-17.92 37.12-37.12 37.12z m0-53.12c-8.32 0-17.28 7.04-16 17.92 0.64 8.96 8.96 14.72 17.92 14.08 8.96-0.64 14.08-7.04 14.08-16 0-9.6-7.68-16-16-16zM384 206.08c-22.4 0-39.68-18.56-37.12-41.6 1.92-17.28 16-30.72 32.64-32.64 23.04-2.56 41.6 14.72 41.6 37.12 0 21.12-16.64 37.12-37.12 37.12z m0-53.12c-8.32 0-17.28 7.04-16 17.92 0.64 8.96 8.96 14.72 17.92 14.08 8.96-0.64 14.08-7.04 14.08-16 0-9.6-6.4-16-16-16z m0 0" fill="#2196F3" p-id="17914"></path><path d="M785.28 794.88h125.44v43.52h-125.44zM173.44 108.8h737.28v-43.52H173.44c-33.28 0-60.16 28.16-60.16 89.6v647.68c0 7.68 26.88 35.84 60.16 35.84h101.12v-43.52H173.44c-10.24 0-17.92-8.32-17.92-18.56V275.2h755.84v-43.52H154.88V128c0-10.88 8.32-19.2 18.56-19.2z" fill="#2196F3" p-id="17915"></path></svg>