<?xml version="1.0" standalone="no"?><!DOCTYPE svg PUBLIC "-//W3C//DTD SVG 1.1//EN" "http://www.w3.org/Graphics/SVG/1.1/DTD/svg11.dtd"><svg t="1696092195405" class="icon" viewBox="0 0 1024 1024" version="1.1" xmlns="http://www.w3.org/2000/svg" p-id="8747" xmlns:xlink="http://www.w3.org/1999/xlink" width="200" height="200"><path d="M736 864H288c-17.6 0-32 14.4-32 32s14.4 32 32 32h448c17.6 0 32-14.4 32-32s-14.4-32-32-32zM832 96H192c-70.4 0-128 57.6-128 128v416c0 70.4 57.6 128 128 128h640c70.4 0 128-57.6 128-128V224c0-70.4-57.6-128-128-128zM576 544c0 17.6-14.4 32-32 32H288c-17.6 0-32-14.4-32-32s14.4-32 32-32h256c17.6 0 32 14.4 32 32z m192-224c0 17.6-14.4 32-32 32H288c-17.6 0-32-14.4-32-32s14.4-32 32-32h448c17.6 0 32 14.4 32 32z" p-id="8748" fill="#2196F3"></path></svg>