<?xml version="1.0" standalone="no"?><!DOCTYPE svg PUBLIC "-//W3C//DTD SVG 1.1//EN" "http://www.w3.org/Graphics/SVG/1.1/DTD/svg11.dtd"><svg t="1696094575106" class="icon" viewBox="0 0 1024 1024" version="1.1" xmlns="http://www.w3.org/2000/svg" p-id="10355" xmlns:xlink="http://www.w3.org/1999/xlink" width="200" height="200"><path d="M853.333333 85.333333c56.900267 0 85.333333 28.450133 85.333334 85.333334v85.333333H85.333333v-85.333333c0-56.8832 28.450133-85.333333 85.333334-85.333334h682.666666z m-396.8 115.2c8.533333-7.970133 12.8-17.92 12.8-29.866666s-4.266667-22.186667-12.8-30.72c-7.970133-7.970133-17.92-11.946667-29.866666-11.946667s-22.186667 3.976533-30.72 11.946667c-7.970133 8.533333-11.946667 18.773333-11.946667 30.72s3.976533 21.896533 11.946667 29.866666c8.533333 8.533333 18.773333 12.8 30.72 12.8s21.896533-4.266667 29.866666-12.8zM256 170.666667c0 11.946667 3.976533 21.896533 11.946667 29.866666 8.533333 8.533333 18.773333 12.8 30.72 12.8s21.896533-4.266667 29.866666-12.8c8.533333-7.970133 12.8-17.92 12.8-29.866666s-4.266667-22.186667-12.8-30.72c-7.970133-7.970133-17.92-11.946667-29.866666-11.946667s-22.186667 3.976533-30.72 11.946667c-7.970133 8.533333-11.946667 18.773333-11.946667 30.72z m-55.466667 29.866666c8.533333-7.970133 12.8-17.92 12.8-29.866666s-4.266667-22.186667-12.8-30.72c-7.970133-7.970133-17.92-11.946667-29.866666-11.946667s-22.186667 3.976533-30.72 11.946667c-7.970133 8.533333-11.946667 18.773333-11.946667 30.72s3.976533 21.896533 11.946667 29.866666c8.533333 8.533333 18.773333 12.8 30.72 12.8s21.896533-4.266667 29.866666-12.8zM443.733333 375.466667v170.666666H170.666667V375.466667h273.066666z m0 443.733333H170.666667V648.533333h273.066666v170.666667z m136.533334-170.666667h273.066666v170.666667H580.266667V648.533333z m0-102.4V375.466667h273.066666v170.666666H580.266667z" p-id="10356" fill="#2196F3"></path><path d="M853.333333 955.733333H170.666667c-66.030933 0-102.4-36.369067-102.4-102.4V170.666667c0-66.030933 36.369067-102.4 102.4-102.4h682.666666c66.030933 0 102.4 36.369067 102.4 102.4v682.666666c0 66.030933-36.369067 102.4-102.4 102.4zM102.4 273.066667v580.266666c0 47.223467 21.0432 68.266667 68.266667 68.266667h682.666666c47.223467 0 68.266667-21.0432 68.266667-68.266667V273.066667H102.4z m0-34.133334h819.2v-68.266666c0-47.223467-21.0432-68.266667-68.266667-68.266667H170.666667c-47.223467 0-68.266667 21.0432-68.266667 68.266667v68.266666z" p-id="10357" fill="#2196F3"></path></svg>