<?xml version="1.0" standalone="no"?><!DOCTYPE svg PUBLIC "-//W3C//DTD SVG 1.1//EN" "http://www.w3.org/Graphics/SVG/1.1/DTD/svg11.dtd"><svg t="1696094687607" class="icon" viewBox="0 0 1024 1024" version="1.1" xmlns="http://www.w3.org/2000/svg" p-id="12145" xmlns:xlink="http://www.w3.org/1999/xlink" width="200" height="200"><path d="M928 112H96a80 80 0 0 0-80 80v640a80 80 0 0 0 80 80h832a80 80 0 0 0 80-80V192a80 80 0 0 0-80-80z m-624 96a16 16 0 0 1-16 16h-16a16 16 0 0 1 0-32h16a16 16 0 0 1 16 16z m-80 0a16 16 0 0 1-16 16h-16a16 16 0 0 1 0-32h16a16 16 0 0 1 16 16z m-112-16h16a16 16 0 0 1 0 32H112a16 16 0 0 1 0-32zM48 832V304h288a16 16 0 0 0 11.36-4.64l59.2-59.36H912v592a48 48 0 0 1-48 48H96a48 48 0 0 1-48-48z" p-id="12146" fill="#2196F3"></path><path d="M432 480a16 16 0 0 0-16-16H176a64 64 0 0 0-64-64 16 16 0 0 0 0 32 32 32 0 0 1 32 32v144a80 80 0 0 0 29.92 62.4A48 48 0 0 0 160 704a48 48 0 0 0 96 0 44.32 44.32 0 0 0-2.88-16h69.76a44.32 44.32 0 0 0-2.88 16 48 48 0 1 0 48-48h-144a48 48 0 0 1-45.12-32H288a144 144 0 0 0 144-144z" p-id="12147" fill="#2196F3"></path><path d="M560 720m16 0l224 0q16 0 16 16l0 80q0 16-16 16l-224 0q-16 0-16-16l0-80q0-16 16-16Z" p-id="12148" fill="#2196F3"></path><path d="M832 368H544a16 16 0 0 0 0 32h288a16 16 0 0 0 0-32zM832 448H544a16 16 0 0 0 0 32h288a16 16 0 0 0 0-32zM832 528H544a16 16 0 0 0 0 32h288a16 16 0 0 0 0-32zM832 608H544a16 16 0 0 0 0 32h288a16 16 0 0 0 0-32z" p-id="12149" fill="#2196F3"></path></svg>