<?xml version="1.0" standalone="no"?><!DOCTYPE svg PUBLIC "-//W3C//DTD SVG 1.1//EN" "http://www.w3.org/Graphics/SVG/1.1/DTD/svg11.dtd"><svg t="1693320497575" class="icon" viewBox="0 0 1024 1024" version="1.1" xmlns="http://www.w3.org/2000/svg" p-id="6132" xmlns:xlink="http://www.w3.org/1999/xlink" width="200" height="200"><path d="M106.666667 213.333333a21.333333 21.333333 0 0 1 21.333333-21.333333h554.666667a21.333333 21.333333 0 0 1 0 42.666667H128a21.333333 21.333333 0 0 1-21.333333-21.333334zM896 490.666667H128a21.333333 21.333333 0 0 0 0 42.666666h768a21.333333 21.333333 0 0 0 0-42.666666z m-384 298.666666H128a21.333333 21.333333 0 0 0 0 42.666667h384a21.333333 21.333333 0 0 0 0-42.666667z" fill="#2c2c2c" p-id="6133"></path></svg>