<svg version="1.2" xmlns="http://www.w3.org/2000/svg" viewBox="0 0 250 55" width="250" height="55">
	<title>logoAnime-svg</title>
	<style>
		.s0 { fill: #fff;stroke: #fff;stroke-miterlimit:10;stroke-width: .6;stroke-dasharray: 22.89405885889356,45.78811771778712 } 
		.s1 { fill: #fff;stroke: #fff;stroke-miterlimit:10;stroke-width: .6;stroke-dasharray: 22.32170738742122,45.21576624631478 } 
		.s2 { fill: #fff;stroke: #fff;stroke-miterlimit:10;stroke-width: .6;stroke-dasharray: 25.183464744782917,48.077523603676475 } 
		.s3 { fill: #fff;stroke: #fff;stroke-miterlimit:10;stroke-width: .6;stroke-dasharray: 8.012920600612746,30.906979459506307 } 
		.s4 { fill: #fff;stroke: #fff;stroke-miterlimit:10;stroke-width: .6;stroke-dasharray: 14.308786786808476,37.202845645702034 } 
		.s5 { fill: #fff;stroke: #fff;stroke-miterlimit:10;stroke-width: .6;stroke-dasharray: 18.887598558587186,41.781657417480744 } 
		.s6 { fill: #fff;stroke: #fff;stroke-miterlimit:10;stroke-width: .6;stroke-dasharray: 16.025841201225493,38.919900060119055 } 
		.s7 { fill: #fff;stroke: #fff;stroke-miterlimit:10;stroke-width: .6;stroke-dasharray: 26.328167687727593,49.22222654662115 } 
		.s8 { fill: #fff;stroke: #fff;stroke-miterlimit:10;stroke-width: .6;stroke-dasharray: 24.038761801838238,46.9328206607318 } 
		.s9 { fill: #fff;stroke: #fff;stroke-miterlimit:10;stroke-width: .6;stroke-dasharray: 19.459950030059527,42.35400888895309 } 
		.s10 { fill: #fff;stroke: #fff;stroke-miterlimit:10;stroke-width: .6;stroke-dasharray: 123.05556636655288,145.94962522544645 } 
		.s11 { fill: #fff;stroke: #fff;stroke-miterlimit:10;stroke-width: .6;stroke-dasharray: 65.82041921931898,88.71447807821255 } 
		.s12 { fill: #fff;stroke: #fff;stroke-miterlimit:10;stroke-width: .6;stroke-dasharray: 28.61757357361695,51.51163243251051 } 
		.s13 { fill: #fff;stroke: #fff;stroke-miterlimit:10;stroke-width: .6;stroke-dasharray: 111.60853693710611,134.50259579599967 } 
		.s14 { fill: #fff;stroke: #fff;stroke-miterlimit:10;stroke-width: .6;stroke-dasharray: 184.8695252855655,207.76358414445906 } 
		.s15 { fill: #fff;stroke: #fff;stroke-miterlimit:10;stroke-width: .6;stroke-dasharray: 153.9625458260592,176.85660468495274 } 
		.s16 { fill: #fff;stroke: #fff;stroke-miterlimit:10;stroke-width: .6;stroke-dasharray: 160.83076348372725,183.72482234262083 } 
		.s17 { fill: #fff;stroke: #fff;stroke-miterlimit:10;stroke-width: .6;stroke-dasharray: 406.941896216833,429.8359550757266 } 
	</style>
	<g id="Layer">
		<g id="Layer">
			<g id="Layer">
				<path id="Layer" class="s0" d="m87.3 48q-0.1 0-0.2-0.1l-0.6-1.4-0.6 1.4q-0.1 0.1-0.2 0.1-0.1 0-0.1-0.1l-1.6-3.4q-0.1 0 0-0.1 0-0.1 0-0.1 0.1 0 0.2 0 0 0 0.1 0.1l1.4 3.1 0.6-1.4q0.1-0.1 0.2-0.1 0.1 0 0.1 0.1l0.7 1.4 1.4-3.1q0.1-0.1 0.1-0.1 0.1 0 0.2 0 0 0 0 0.1 0.1 0.1 0 0.1l-1.6 3.4q0 0.1-0.1 0.1z"/>
				<path id="Layer" class="s1" d="m91 47.7q-0.1 0-0.2 0 0 0.1 0 0.2 0 0 0 0.1 0.1 0 0.2 0h3.1q0.1 0 0.2 0 0-0.1 0-0.1 0-0.1 0-0.2-0.1 0-0.2 0zm3.2-3.1q0.1 0 0.1 0 0.1-0.1 0.1-0.2 0 0-0.1-0.1 0 0-0.1 0h-3.2q0 0-0.1 0 0 0.1 0 0.1 0 0.1 0 0.2 0.1 0 0.1 0zm-3.1 1.4q-0.1 0-0.2 0 0 0.1 0 0.2 0 0 0 0.1 0.1 0 0.2 0h3.1q0.1 0 0.2 0 0-0.1 0-0.1 0-0.1 0-0.2-0.1 0-0.2 0z"/>
				<path id="Layer" class="s2" d="m99.1 46.2q0.5-0.3 0.5-0.9 0-0.4-0.3-0.7-0.3-0.3-0.8-0.3h-2.3q-0.1 0-0.1 0-0.1 0.1-0.1 0.1 0 0.1 0.1 0.2 0 0 0.1 0h2.3q0.3 0 0.5 0.2 0.2 0.2 0.2 0.5 0 0.3-0.2 0.5-0.2 0.2-0.5 0.2h-2.3q-0.1 0-0.1 0-0.1 0.1-0.1 0.2 0 0 0.1 0.1 0 0 0.1 0h2.3q0.3 0 0.5 0.2 0.2 0.2 0.2 0.5 0 0.3-0.2 0.5-0.2 0.2-0.5 0.2h-2.3q-0.1 0-0.1 0-0.1 0.1-0.1 0.2 0 0 0.1 0.1 0 0 0.1 0h2.3q0.5 0 0.8-0.3 0.3-0.3 0.3-0.7 0-0.5-0.5-0.8z"/>
				<path id="Layer" class="s0" d="m103.6 46q-0.1 0-0.1 0-0.1 0.1-0.1 0.2 0 0 0.1 0.1 0 0 0.1 0h0.2q0.3 0 0.5 0.2 0.2 0.2 0.2 0.5 0 0.3-0.2 0.5-0.2 0.2-0.5 0.2h-2.3q-0.1 0-0.2 0 0 0.1 0 0.2 0 0 0 0.1 0.1 0 0.2 0h2.3q0.4 0 0.7-0.3 0.3-0.3 0.3-0.7 0-0.4-0.3-0.7-0.3-0.3-0.7-0.3zm-1.1 0.3q0.1 0 0.1 0 0.1-0.1 0.1-0.1 0-0.1-0.1-0.2 0 0-0.1 0h-0.2q-0.3 0-0.5-0.2-0.2-0.2-0.2-0.5 0-0.3 0.2-0.5 0.2-0.2 0.5-0.2h2.3q0.1 0 0.1 0 0.1-0.1 0.1-0.2 0 0-0.1-0.1 0 0-0.1 0h-2.3q-0.4 0-0.7 0.3-0.3 0.3-0.3 0.7 0 0.4 0.3 0.7 0.3 0.3 0.7 0.3z"/>
				<path id="Layer" class="s3" d="m106.7 48q-0.1 0-0.1 0-0.1-0.1-0.1-0.1v-3.5q0 0 0.1-0.1 0 0 0.1 0 0.1 0 0.1 0 0.1 0.1 0.1 0.1v3.5q0 0-0.1 0.1 0 0-0.1 0z"/>
				<path id="Layer" class="s4" d="m108.8 44.3q-0.1 0-0.1 0-0.1 0.1-0.1 0.1 0 0.1 0.1 0.2 0 0 0.1 0h1.5v3.3q0 0 0 0.1 0.1 0 0.1 0 0.1 0 0.1 0 0.1-0.1 0.1-0.1v-3.3h1.4q0 0 0.1 0 0-0.1 0-0.2 0 0 0-0.1-0.1 0-0.1 0z"/>
				<path id="Layer" class="s1" d="m114 47.7q0 0-0.1 0 0 0.1 0 0.2 0 0 0 0.1 0.1 0 0.1 0h3.2q0.1 0 0.1 0 0.1-0.1 0.1-0.1 0-0.1-0.1-0.2 0 0-0.1 0zm3.2-3.1q0 0 0.1 0 0-0.1 0-0.2 0 0 0-0.1-0.1 0-0.1 0h-3.2q-0.1 0-0.1 0-0.1 0.1-0.1 0.1 0 0.1 0.1 0.2 0 0 0.1 0zm-3.2 1.4q0 0-0.1 0 0 0.1 0 0.2 0 0 0 0.1 0.1 0 0.1 0h3.2q0.1 0 0.1 0 0.1-0.1 0.1-0.1 0-0.1-0.1-0.2 0 0-0.1 0z"/>
				<path id="Layer" class="s5" d="m122 48q0 0-0.1 0 0-0.1 0-0.1 0-0.1 0-0.2 0.1 0 0.1 0h2.2q0.3 0 0.6-0.3 0.2-0.2 0.2-0.6v-1.3q0-0.4-0.2-0.6-0.3-0.3-0.6-0.3h-2.2q0 0-0.1 0 0-0.1 0-0.2 0 0 0-0.1 0.1 0 0.1 0h2.2q0.5 0 0.8 0.3 0.4 0.4 0.4 0.9v1.3q0 0.5-0.4 0.9-0.3 0.3-0.8 0.3z"/>
				<path id="Layer" class="s1" d="m127.3 47.7q-0.1 0-0.1 0-0.1 0.1-0.1 0.2 0 0 0.1 0.1 0 0 0.1 0h3.2q0 0 0.1 0 0-0.1 0-0.1 0-0.1 0-0.2-0.1 0-0.1 0zm3.1-3.1q0.1 0 0.2 0 0-0.1 0-0.2 0 0 0-0.1-0.1 0-0.2 0h-3.1q-0.1 0-0.2 0 0 0.1 0 0.1 0 0.1 0 0.2 0.1 0 0.2 0zm-3.2 1.4q-0.1 0-0.1 0-0.1 0.1-0.1 0.2 0 0 0.1 0.1 0 0 0.1 0h3.2q0 0 0.1 0 0-0.1 0-0.1 0-0.1 0-0.2-0.1 0-0.1 0z"/>
				<path id="Layer" class="s6" d="m134.1 48q-0.1 0-0.1-0.1l-1.6-3.4q0 0 0-0.1 0-0.1 0.1-0.1 0 0 0.1 0 0.1 0 0.1 0.1l1.4 3.1 1.5-3.1q0-0.1 0.1-0.1 0 0 0.1 0 0.1 0 0.1 0.1 0 0.1 0 0.1l-1.6 3.4q-0.1 0.1-0.2 0.1z"/>
				<path id="Layer" class="s1" d="m137.8 47.7q-0.1 0-0.1 0-0.1 0.1-0.1 0.2 0 0 0.1 0.1 0 0 0.1 0h3.2q0 0 0.1 0 0-0.1 0-0.1 0-0.1 0-0.2-0.1 0-0.1 0zm3.2-3.1q0 0 0.1 0 0-0.1 0-0.2 0 0 0-0.1-0.1 0-0.1 0h-3.2q-0.1 0-0.1 0-0.1 0.1-0.1 0.1 0 0.1 0.1 0.2 0 0 0.1 0zm-3.2 1.4q-0.1 0-0.1 0-0.1 0.1-0.1 0.2 0 0 0.1 0.1 0 0 0.1 0h3.2q0 0 0.1 0 0-0.1 0-0.1 0-0.1 0-0.2-0.1 0-0.1 0z"/>
				<path id="Layer" class="s4" d="m143 48q0 0-0.1 0 0-0.1 0-0.1v-3.5q0 0 0-0.1 0.1 0 0.1 0 0.1 0 0.2 0 0 0.1 0 0.1v3.3h3q0.1 0 0.1 0 0.1 0.1 0.1 0.2 0 0-0.1 0.1 0 0-0.1 0z"/>
				<path id="Layer" fill-rule="evenodd" class="s7" d="m150.9 44.3q0.3 0 0.5 0.2 0.2 0.2 0.2 0.5v2.3q0 0.3-0.2 0.5-0.2 0.2-0.5 0.2h-2.1q-0.3 0-0.5-0.2-0.2-0.2-0.2-0.5v-2.3q0-0.3 0.2-0.5 0.2-0.2 0.5-0.2zm0.4 0.7q0-0.2-0.1-0.3-0.1-0.1-0.3-0.1h-2.1q-0.1 0-0.2 0.1-0.2 0.1-0.2 0.3v2.3q0 0.2 0.2 0.3 0.1 0.1 0.2 0.1h2.1q0.2 0 0.3-0.1 0.1-0.1 0.1-0.3zm-1.3 1q0 0 0 0.1v0.2q0 0.1 0 0.2-0.1 0-0.1 0-0.1 0-0.2 0 0-0.1 0-0.2v-0.2q0-0.1 0-0.1 0.1-0.1 0.2-0.1 0 0 0.1 0.1z"/>
				<path id="Layer" class="s5" d="m153.7 48q-0.1 0-0.1 0-0.1-0.1-0.1-0.1v-1.7q0-0.1 0.1-0.2 0 0 0.1 0h2.2q0.2 0 0.4-0.2 0.3-0.2 0.3-0.5 0-0.3-0.3-0.5-0.2-0.2-0.4-0.2h-2.4q0 0-0.1 0 0-0.1 0-0.2 0 0 0-0.1 0.1 0 0.1 0h2.4q0.4 0 0.7 0.3 0.3 0.3 0.3 0.7 0 0.4-0.3 0.7-0.3 0.3-0.7 0.3h-2.1v1.6q0 0 0 0.1-0.1 0-0.1 0z"/>
				<path id="Layer" class="s8" d="m162.5 48q-0.1 0-0.1 0-0.1-0.1-0.1-0.1v-3.1l-1.5 1.5q-0.1 0-0.2 0 0 0-0.1 0l-1.5-1.5v3.1q0 0-0.1 0.1 0 0-0.1 0-0.1 0-0.1 0-0.1-0.1-0.1-0.1v-3.5q0-0.1 0.1-0.1 0.1 0 0.2 0l1.7 1.6 1.8-1.6q0.1 0 0.2 0 0.1 0 0.1 0.1v3.5q0 0-0.1 0.1 0 0-0.1 0z"/>
				<path id="Layer" class="s1" d="m164.6 47.7q-0.1 0-0.2 0 0 0.1 0 0.2 0 0 0 0.1 0.1 0 0.2 0h3.1q0.1 0 0.2 0 0-0.1 0-0.1 0-0.1 0-0.2-0.1 0-0.2 0zm3.2-3.1q0.1 0 0.1 0 0.1-0.1 0.1-0.2 0 0-0.1-0.1 0 0-0.1 0h-3.2q0 0-0.1 0 0 0.1 0 0.1 0 0.1 0 0.2 0.1 0 0.1 0zm-3.1 1.4q-0.1 0-0.2 0 0 0.1 0 0.2 0 0 0 0.1 0.1 0 0.2 0h3.1q0.1 0 0.2 0 0-0.1 0-0.1 0-0.1 0-0.2-0.1 0-0.2 0z"/>
				<path id="Layer" class="s1" d="m173 44.3q-0.1 0-0.1 0-0.1 0.1-0.1 0.1v3l-0.9-1q0 0-0.1 0-0.1 0-0.1 0-0.1 0.1-0.1 0.1 0 0.1 0.1 0.2l1.2 1.3q0 0 0.1 0 0 0 0 0 0.2 0 0.2-0.1v-3.5q0 0-0.1-0.1 0 0-0.1 0zm-3.1 0q0 0-0.1 0-0.2 0-0.2 0.1v3.5q0 0 0.1 0.1 0 0 0.1 0 0.1 0 0.1 0 0.1-0.1 0.1-0.1v-3l0.9 1q0 0 0.1 0 0.1 0 0.1 0 0.1-0.1 0.1-0.1 0-0.1-0.1-0.2z"/>
				<path id="Layer" class="s4" d="m175.1 44.3q-0.1 0-0.2 0 0 0.1 0 0.1 0 0.1 0 0.2 0.1 0 0.2 0h1.4v3.3q0 0 0.1 0.1 0 0 0.1 0 0.1 0 0.1 0 0.1-0.1 0.1-0.1v-3.3h1.3q0.1 0 0.1 0 0.1-0.1 0.1-0.2 0 0-0.1-0.1 0 0-0.1 0z"/>
				<path id="Layer" class="s9" d="m186.2 48q0 0-0.1 0 0-0.1 0-0.1v-2.4q0-0.4-0.3-0.6-0.2-0.3-0.6-0.3h-1.1q-0.3 0-0.6 0.3-0.3 0.2-0.3 0.6v2.4q0 0 0 0.1-0.1 0-0.1 0-0.1 0-0.1 0-0.1-0.1-0.1-0.1v-2.4q0-0.5 0.4-0.9 0.3-0.3 0.8-0.3h1.1q0.5 0 0.9 0.3 0.3 0.4 0.3 0.9v2.4q0 0 0 0.1-0.1 0-0.2 0z"/>
				<path id="Layer" class="s1" d="m191.5 44.3q-0.1 0-0.1 0-0.1 0.1-0.1 0.1v3l-0.9-1q0 0-0.1 0-0.1 0-0.1 0-0.1 0.1-0.1 0.1 0 0.1 0.1 0.2l1.2 1.3q0 0 0.1 0 0 0 0.1 0 0.1 0 0.1-0.1v-3.5q0 0-0.1-0.1 0 0-0.1 0zm-3.1 0q0 0-0.1 0-0.1 0-0.1 0.1v3.5q0 0 0 0.1 0.1 0 0.1 0 0.1 0 0.1 0 0.1-0.1 0.1-0.1v-3l0.9 1q0 0 0.1 0 0.1 0 0.1 0 0.1-0.1 0.1-0.1 0-0.1-0.1-0.2z"/>
				<path id="Layer" class="s5" d="m193.6 48q-0.1 0-0.2 0 0-0.1 0-0.1 0-0.1 0-0.2 0.1 0 0.2 0h2.1q0.4 0 0.6-0.3 0.3-0.2 0.3-0.6v-1.3q0-0.4-0.3-0.6-0.2-0.3-0.6-0.3h-2.1q-0.1 0-0.2 0 0-0.1 0-0.2 0 0 0-0.1 0.1 0 0.2 0h2.1q0.5 0 0.9 0.3 0.3 0.4 0.3 0.9v1.3q0 0.5-0.3 0.9-0.4 0.3-0.9 0.3z"/>
				<path id="Layer" class="s5" d="m201.7 48q-0.1 0-0.1 0-0.1-0.1-0.1-0.1v-1.7q0-0.1 0.1-0.2 0 0 0.1 0h2.2q0.3 0 0.5-0.2 0.2-0.2 0.2-0.5 0-0.3-0.2-0.5-0.2-0.2-0.5-0.2h-2.3q-0.1 0-0.1 0-0.1-0.1-0.1-0.2 0 0 0.1-0.1 0 0 0.1 0h2.3q0.4 0 0.7 0.3 0.3 0.3 0.3 0.7 0 0.4-0.3 0.7-0.3 0.3-0.7 0.3h-2v1.6q0 0-0.1 0.1 0 0-0.1 0z"/>
				<path id="Layer" class="s9" d="m209.6 46.2q0.3-0.1 0.4-0.4 0.2-0.2 0.2-0.5 0-0.4-0.3-0.7-0.3-0.3-0.8-0.3h-2.3q0 0-0.1 0 0 0.1 0 0.1 0 0.1 0 0.2 0.1 0 0.1 0h2.3q0.3 0 0.5 0.2 0.2 0.2 0.2 0.5 0 0.3-0.2 0.5-0.2 0.2-0.5 0.2h-2.3q0 0-0.1 0 0 0.1 0 0.2 0 0 0 0.1 0.1 0 0.1 0h2.1q0.4 0 0.7 0.3 0.2 0.2 0.2 0.6v0.7q0 0 0.1 0.1 0 0 0.1 0 0.1 0 0.1 0 0.1-0.1 0.1-0.1v-0.7q0-0.6-0.6-1z"/>
				<path id="Layer" fill-rule="evenodd" class="s7" d="m214.7 44.3q0.3 0 0.5 0.2 0.2 0.2 0.2 0.5v2.3q0 0.3-0.2 0.5-0.2 0.2-0.5 0.2h-2.1q-0.3 0-0.5-0.2-0.2-0.2-0.2-0.5v-2.3q0-0.3 0.2-0.5 0.2-0.2 0.5-0.2zm0.4 0.7q0-0.2-0.1-0.3-0.1-0.1-0.3-0.1h-2.1q-0.2 0-0.3 0.1-0.1 0.1-0.1 0.3v2.3q0 0.2 0.1 0.3 0.1 0.1 0.3 0.1h2.1q0.2 0 0.3-0.1 0.1-0.1 0.1-0.3zm-1.3 1q0 0 0 0.1v0.2q0 0.1 0 0.2-0.1 0-0.2 0 0 0-0.1 0 0-0.1 0-0.2v-0.2q0-0.1 0-0.1 0.1-0.1 0.1-0.1 0.1 0 0.2 0.1z"/>
				<path id="Layer" class="s8" d="m221 48q0 0-0.1 0 0-0.1 0-0.1v-3.1l-1.6 1.5q-0.1 0-0.1 0-0.1 0-0.1 0l-1.6-1.5v3.1q0 0-0.1 0.1 0 0-0.1 0 0 0-0.1 0 0-0.1 0-0.1v-3.5q0-0.1 0.1-0.1 0.1 0 0.1 0l1.8 1.6 1.7-1.6q0.1 0 0.2 0 0.1 0 0.1 0.1v3.5q0 0-0.1 0.1 0 0-0.1 0z"/>
				<path id="Layer" fill-rule="evenodd" class="s7" d="m225.7 44.3q0.3 0 0.5 0.2 0.2 0.2 0.2 0.5v2.3q0 0.3-0.2 0.5-0.2 0.2-0.5 0.2h-2.1q-0.3 0-0.5-0.2-0.2-0.2-0.2-0.5v-2.3q0-0.3 0.2-0.5 0.2-0.2 0.5-0.2zm0.4 0.7q0-0.2-0.1-0.3-0.1-0.1-0.3-0.1h-2.1q-0.1 0-0.2 0.1-0.2 0.1-0.2 0.3v2.3q0 0.2 0.2 0.3 0.1 0.1 0.2 0.1h2.1q0.2 0 0.3-0.1 0.1-0.1 0.1-0.3zm-1.3 1q0 0 0 0.1v0.2q0 0.1 0 0.2-0.1 0-0.1 0-0.1 0-0.1 0-0.1-0.1-0.1-0.2v-0.2q0-0.1 0.1-0.1 0-0.1 0.1-0.1 0 0 0.1 0.1z"/>
				<path id="Layer" class="s4" d="m228.3 44.3q0 0-0.1 0 0 0.1 0 0.1 0 0.1 0 0.2 0.1 0 0.1 0h1.5v3.3q0 0 0.1 0.1 0 0 0.1 0 0.1 0 0.1 0 0.1-0.1 0.1-0.1v-3.3h1.3q0.1 0 0.1 0 0.1-0.1 0.1-0.2 0 0-0.1-0.1 0 0-0.1 0z"/>
				<path id="Layer" class="s3" d="m233.6 48q-0.1 0-0.1 0-0.1-0.1-0.1-0.1v-3.5q0 0 0.1-0.1 0 0 0.1 0 0.1 0 0.1 0 0.1 0.1 0.1 0.1v3.5q0 0-0.1 0.1 0 0-0.1 0z"/>
				<path id="Layer" fill-rule="evenodd" class="s7" d="m238.3 44.3q0.3 0 0.5 0.2 0.2 0.2 0.2 0.5v2.3q0 0.3-0.2 0.5-0.2 0.2-0.5 0.2h-2.1q-0.3 0-0.5-0.2-0.2-0.2-0.2-0.5v-2.3q0-0.3 0.2-0.5 0.2-0.2 0.5-0.2zm0.4 0.7q0-0.2-0.2-0.3-0.1-0.1-0.2-0.1h-2.1q-0.2 0-0.3 0.1-0.1 0.1-0.1 0.3v2.3q0 0.2 0.1 0.3 0.1 0.1 0.3 0.1h2.1q0.1 0 0.2-0.1 0.2-0.1 0.2-0.3zm-1.4 1q0.1 0 0.1 0.1v0.2q0 0.1-0.1 0.2 0 0-0.1 0 0 0-0.1 0 0-0.1 0-0.2v-0.2q0-0.1 0-0.1 0.1-0.1 0.1-0.1 0.1 0 0.1 0.1z"/>
				<path id="Layer" class="s1" d="m244.1 44.3q-0.1 0-0.1 0-0.1 0.1-0.1 0.1v3l-0.9-1q0 0-0.1 0-0.1 0-0.1 0-0.1 0.1-0.1 0.1 0 0.1 0.1 0.2l1.2 1.3q0 0 0.1 0 0 0 0 0 0.1 0 0.1-0.1v-3.5q0 0 0-0.1 0 0-0.1 0zm-3.1 0q0 0-0.2 0-0.1 0-0.1 0.1v3.5q0 0 0.1 0.1 0 0 0.1 0 0.1 0 0.1 0 0.1-0.1 0.1-0.1v-3l0.9 1q0 0 0.1 0 0.1 0 0.1 0 0.1-0.1 0.1-0.1 0-0.1-0.1-0.2z"/>
			</g>
			<g id="Layer">
				<path id="Layer" class="s10" d="m86.4 37q-1.5 0-2.1-1.2l-11.9-25.7q-0.4-0.8-0.1-1.7 0.4-0.8 1.2-1.2 0.8-0.4 1.7-0.1 0.9 0.3 1.3 1.2l9.9 21.2 9.9-21.2q0.3-0.9 1.2-1.2 0.9-0.3 1.7 0.1 0.9 0.4 1.2 1.2 0.3 0.9-0.1 1.7l-11.9 25.7q-0.6 1.2-2 1.2z"/>
				<path id="Layer" class="s11" d="m106.5 37q-0.9 0-1.6-0.6-0.6-0.7-0.6-1.6v-25.6q0-0.9 0.6-1.6 0.7-0.6 1.6-0.6 0.9 0 1.6 0.6 0.6 0.7 0.6 1.6v25.6q0 0.9-0.6 1.6-0.7 0.6-1.6 0.6z"/>
				<path id="Layer" class="s12" d="m114.5 37q-0.9 0-1.6-0.6-0.6-0.7-0.6-1.6 0-0.9 0.6-1.6 0.7-0.6 1.6-0.6 1 0 1.6 0.6 0.7 0.7 0.7 1.6 0 0.9-0.7 1.6-0.6 0.6-1.6 0.6zm0-12.8q-0.9 0-1.6-0.6-0.6-0.7-0.6-1.6 0-0.9 0.6-1.5 0.7-0.7 1.6-0.7 1 0 1.6 0.7 0.7 0.6 0.7 1.5 0 0.9-0.7 1.6-0.6 0.6-1.6 0.6z"/>
				<path id="Layer" class="s13" d="m122.6 7q-1 0-1.6 0.6-0.7 0.7-0.7 1.6 0 0.9 0.7 1.6 0.6 0.6 1.6 0.6h10.1v23.4q0 0.9 0.7 1.6 0.6 0.6 1.6 0.6 0.9 0 1.6-0.6 0.6-0.7 0.6-1.6v-23.4h9.2q0.9 0 1.6-0.6 0.6-0.7 0.6-1.6 0-0.9-0.6-1.6-0.7-0.6-1.6-0.6z"/>
				<path id="Layer" class="s14" d="m154.4 32.6q-0.9 0-1.6 0.6-0.6 0.7-0.6 1.6 0 0.9 0.6 1.6 0.7 0.6 1.6 0.6h23.9q0.9 0 1.6-0.6 0.6-0.7 0.6-1.6 0-0.9-0.6-1.6-0.7-0.6-1.6-0.6zm23.8-21.2q0.9 0 1.6-0.6 0.7-0.7 0.7-1.6 0-0.9-0.7-1.6-0.7-0.6-1.6-0.6h-23.8q-1 0-1.6 0.6-0.7 0.7-0.7 1.6 0 0.9 0.7 1.6 0.6 0.6 1.6 0.6zm-23.9 8.4q-0.9 0-1.6 0.7-0.6 0.6-0.6 1.5 0 0.9 0.6 1.6 0.7 0.6 1.6 0.6h23.9q0.9 0 1.6-0.6 0.6-0.7 0.6-1.6 0-0.9-0.6-1.5-0.7-0.7-1.6-0.7z"/>
				<path id="Layer" class="s15" d="m190.3 37q-2.6 0-4.4-1.8-1.8-1.8-1.8-4.3v-17.7q0-2.6 1.8-4.4 1.8-1.8 4.4-1.8h19.9q0.9 0 1.5 0.6 0.7 0.7 0.7 1.6 0 0.9-0.7 1.6-0.6 0.6-1.5 0.6h-19.9q-0.7 0-1.3 0.5-0.5 0.5-0.5 1.3v17.7q0 0.7 0.5 1.2 0.6 0.5 1.3 0.5h19.9q0.9 0 1.5 0.6 0.7 0.7 0.7 1.6 0 0.9-0.7 1.6-0.6 0.6-1.5 0.6z"/>
				<path id="Layer" class="s16" d="m242 7q-0.9 0-1.6 0.6-0.6 0.7-0.6 1.6v10.6h-19.4v-10.6q0-0.9-0.6-1.6-0.7-0.6-1.6-0.6-0.9 0-1.6 0.6-0.7 0.7-0.7 1.6v25.6q0 0.9 0.7 1.6 0.7 0.6 1.6 0.6 0.9 0 1.6-0.6 0.6-0.7 0.6-1.6v-10.6h19.4v10.6q0 0.9 0.6 1.6 0.7 0.6 1.6 0.6 0.9 0 1.6-0.6 0.7-0.7 0.7-1.6v-25.6q0-0.9-0.7-1.6-0.7-0.6-1.6-0.6z"/>
			</g>
			<g id="Layer">
				<path id="Layer" fill-rule="evenodd" class="s17" d="m42.2 14.5l-13.1-13-13.1 13 1.1 1.1 12-11.9 5.1 5.1-12 11.9 1.1 1.1 12.1-11.9 5.7 5.7zm5.1 7.3l5.8 5.7-5.2 5.1-12.5-12.4-6.9 6.7 1.1 1.1 5.8-5.6 11.4 11.3-17.7 17.6-5.2-5.1 12-11.9-1.1-1.1-12 11.9-5.1-5.2 6.2-6.2-6.8-6.8-1.1 1.1 5.7 5.7-5.1 5.1-11.5-11.3 5.7-5.7-1.1-1.1-6.8 6.8 26.2 26 26.2-26-6.9-6.8z"/>
			</g>
		</g>
	</g>
</svg>