<svg xmlns="http://www.w3.org/2000/svg" width="30" height="38" viewBox="0 0 30 38" fill="none"><g clip-path="url(#dc-DirectO-a)"><rect y="4" width="30" height="30" rx="15" fill="url(#dc-DirectO-b)"/><path d="M36.682 5.924A3.963 3.963 0 0 1 38.31 8.32a4.093 4.093 0 0 1-2.541 4.731l-.649 20.532c-.709 2.109-9.25 3.266-11.367 2.585a3.965 3.965 0 0 1-2.551-5.051l2.554-7.603-35.495 32.576-5.649-6.155 35.474-32.556-7.732 1.88a3.965 3.965 0 0 1-4.814-2.975 4.09 4.09 0 0 1 3.013-4.876l21.023-5.11A4.094 4.094 0 0 1 34.495 4.2c.954.307 1.71.934 2.188 1.724Z" fill="url(#dc-DirectO-c)"/><path d="M36.682 5.924A3.963 3.963 0 0 1 38.31 8.32a4.093 4.093 0 0 1-2.541 4.731l-.649 20.532c-.709 2.109-9.25 3.266-11.367 2.585a3.965 3.965 0 0 1-2.551-5.051l2.554-7.603-35.495 32.576-5.649-6.155 35.474-32.556-7.732 1.88a3.965 3.965 0 0 1-4.814-2.975 4.09 4.09 0 0 1 3.013-4.876l21.023-5.11A4.094 4.094 0 0 1 34.495 4.2c.954.307 1.71.934 2.188 1.724Z" fill="url(#dc-DirectO-d)"/></g><defs><linearGradient id="dc-DirectO-b" x1="30" y1="32.708" x2="-17" y2="-10.917" gradientUnits="userSpaceOnUse"><stop offset=".01" stop-color="#3E3BA0"/><stop offset="1" stop-color="#498BFF"/></linearGradient><linearGradient id="dc-DirectO-c" x1="134.707" y1="74.882" x2="-43.987" y2="95.753" gradientUnits="userSpaceOnUse"><stop stop-color="#FFB800"/><stop offset="1" stop-color="#FFF11D"/></linearGradient><linearGradient id="dc-DirectO-d" x1="-17.388" y1="50.626" x2="118.115" y2="-21.167" gradientUnits="userSpaceOnUse"><stop stop-color="#FFF11D"/><stop offset="1" stop-color="#FFB800"/></linearGradient><clipPath id="dc-DirectO-a"><rect y="4" width="30" height="30" rx="15" fill="#fff"/></clipPath></defs></svg>