<svg fill="none" xmlns="http://www.w3.org/2000/svg" viewBox="0 0 26 26" width="26" height="26"><mask id="mask0_1773_256" maskUnits="userSpaceOnUse" x="0" y="0" width="26" height="27" style="mask-type: alpha;"><ellipse cx="13" cy="13.001" rx="13" ry="13" fill="white"></ellipse></mask><g mask="url(#mask0_1773_256)"><rect y="0.00170898" width="26" height="26" fill="url(#paint0_linear_1773_256)"></rect><path d="M0 16H8V26H0V16Z" fill="url(#paint1_linear_1773_256)"></path><path d="M0 16H8V26H0V16Z" fill="url(#paint2_linear_1773_256)"></path><path d="M8 12.8C8 11.1198 8 10.2798 8.32698 9.63803C8.6146 9.07354 9.07354 8.6146 9.63803 8.32698C10.2798 8 11.1198 8 12.8 8H18V26H8V12.8Z" fill="url(#paint3_linear_1773_256)"></path><path d="M18 0H26V26H18V0Z" fill="url(#paint4_linear_1773_256)"></path></g><defs><linearGradient id="paint0_linear_1773_256" x1="18.6333" y1="18.8505" x2="-2.81665" y2="-11.0494" gradientUnits="userSpaceOnUse"><stop stop-color="#4643B9"></stop><stop offset="1" stop-color="#1E8AFF"></stop></linearGradient><linearGradient id="paint1_linear_1773_256" x1="0" y1="16" x2="5.30456" y2="26.8653" gradientUnits="userSpaceOnUse"><stop offset="0.130208" stop-color="#FF455C"></stop><stop offset="1" stop-color="#FF1139"></stop></linearGradient><linearGradient id="paint2_linear_1773_256" x1="8" y1="16" x2="1.07562" y2="22.2904" gradientUnits="userSpaceOnUse"><stop stop-color="#FF2D4C"></stop><stop offset="1" stop-color="#FF2D4C" stop-opacity="0"></stop></linearGradient><linearGradient id="paint3_linear_1773_256" x1="69.5" y1="65.5" x2="75.4534" y2="16.8127" gradientUnits="userSpaceOnUse"><stop stop-color="#3C3BA0"></stop><stop offset="0.489583" stop-color="#1E8AFF"></stop><stop offset="1" stop-color="#00B2FF"></stop></linearGradient><linearGradient id="paint4_linear_1773_256" x1="18" y1="1.33675" x2="40.6415" y2="13.037" gradientUnits="userSpaceOnUse"><stop stop-color="#FFEA1A"></stop><stop offset="1" stop-color="#FFB800"></stop></linearGradient></defs></svg>