<svg xmlns="http://www.w3.org/2000/svg" xmlns:xlink="http://www.w3.org/1999/xlink" id="Layer_1" x="0px" y="0px" viewBox="0 0 458 137.5" style="enable-background:new 0 0 458 137.5;" xml:space="preserve"> <g> <path d="M61.2,103.9l-11-25h-8.7v25H17.4V24.4h42.4c18.6,0,28.6,12.4,28.6,27.3c0,13.7-8,21-14.3,24.1l14.4,28.1H61.2z M64.1,51.5 c0-4.3-3.8-6.2-7.9-6.2H41.5v12.5h14.7C60.2,57.9,64.1,56,64.1,51.5z"/> <path d="M90.3,75c0-16.7,12.8-30.2,31.4-30.2c16.9,0,29.9,12.2,29.9,32.4v4.4h-39.1c1.2,3.7,5.4,7.3,12.4,7.3 c3.2,0,10.4-1.5,13.2-4.1l8.8,13.2c-5.7,4.9-16,7.2-24.6,7.2C104.4,105.3,90.3,94,90.3,75z M121.6,61.2c-6.6,0-8.7,4.3-9.4,6.9h19 C130.6,65.6,128.6,61.2,121.6,61.2z"/> <path d="M153.8,55.1c0-5.2,4.4-9.7,9.7-9.7c5.2,0,9.7,4.4,9.7,9.7c0,5.2-4.4,9.7-9.7,9.7C158.2,64.8,153.8,60.4,153.8,55.1z M153.8,95.5c0-5.2,4.4-9.7,9.7-9.7c5.2,0,9.7,4.4,9.7,9.7s-4.4,9.7-9.7,9.7C158.2,105.2,153.8,100.8,153.8,95.5z"/> <path d="M200.8,97.8v28h-21.5V46.3h21.5v6.1c4.6-5.5,10.3-7.5,16.2-7.5c14.3,0,25.3,10.5,25.3,30.2c0,19.8-11,30.3-25.3,30.3 C211.1,105.3,205.6,103.3,200.8,97.8z M220.4,75c0-7.2-5-11.2-10.7-11.2c-2.7,0-6.8,1.4-8.8,3.9v14.7c1.9,2.4,6.1,3.9,8.8,3.9 C215.4,86.4,220.4,82.3,220.4,75z"/> <path d="M250.3,103.9V24.4h21.5v79.5H250.3z"/> <path d="M316.9,103.9v-5.5c-3.2,4.1-10.3,6.9-17.4,6.9c-8.6,0-19.8-5.8-19.8-19c0-14.3,11.2-18.4,19.8-18.4 c7.5,0,14.3,2.4,17.4,6.3v-6c0-4.1-3.7-7.2-10.7-7.2c-5.4,0-11.4,2.1-16,5.6L283,53.6c7.8-6.2,18.5-8.7,27.2-8.7 c14.3,0,28.3,5,28.3,24.2v34.8L316.9,103.9L316.9,103.9z M316.9,88.3v-3.2c-1.4-2-5.1-3.1-8.5-3.1c-3.6,0-7.5,1.2-7.5,4.8 c0,3.6,3.9,4.7,7.5,4.7C311.8,91.4,315.5,90.3,316.9,88.3z"/> <path d="M349,30.1c0-6.7,5.4-12,12-12s12,5.4,12,12s-5.4,12-12,12S349,36.8,349,30.1z M350.3,103.9V46.3h21.5v57.6H350.3 L350.3,103.9z"/> <path d="M422.7,103.9V72.1c0-6-3.2-8.2-8.3-8.2c-4.9,0-7.4,2.5-9.2,4.5v35.5h-21.5V46.3h21.5v6.6c3.3-3.8,9.7-8,19.8-8 c13.4,0,19.2,8.1,19.2,18.1v40.9L422.7,103.9L422.7,103.9z"/> </g> </svg>