<svg xmlns="http://www.w3.org/2000/svg" width="152" height="36" viewBox="0 0 152 36" fill="none">
<path d="M26.2167 3.02051H26.1428C25.407 2.96841 10.4222 2.18002 0 18.2431C10.701 33.8443 25.8706 33.0073 26.0454 32.9864C38.7858 32.8892 47.1619 24.9323 52 18.1424C47.3198 11.3455 39.0143 3.11776 26.2167 3.02051ZM25.2088 30.3955V19.8789H18.8679L26.8744 5.56977V16.0933H33.5134L25.2088 30.3955Z" fill="#F34C2A"/>
<path d="M60.12 16C60.12 15.3867 60.12 14.792 60.12 14.216C60.12 13.64 60.12 12.9947 60.12 12.28V8.408C60.12 7.672 60.12 7.008 60.12 6.416C60.12 5.824 60.12 5.216 60.12 4.592C60.4667 4.592 60.8747 4.592 61.344 4.592C61.8187 4.592 62.3253 4.592 62.864 4.592C63.4027 4.592 63.9467 4.592 64.496 4.592C65.424 4.592 66.208 4.696 66.848 4.904C67.4933 5.10667 67.9813 5.448 68.312 5.928C68.648 6.408 68.816 7.06133 68.816 7.888C68.816 8.544 68.6853 9.13333 68.424 9.656C68.168 10.1787 67.7547 10.592 67.184 10.896C66.6133 11.2 65.8667 11.352 64.944 11.352L65.96 10.392L67.512 12.68C67.752 13.032 68.008 13.4107 68.28 13.816C68.552 14.216 68.816 14.608 69.072 14.992C69.3333 15.3707 69.5627 15.7067 69.76 16H66.776C66.488 15.552 66.2107 15.1227 65.944 14.712C65.6773 14.3013 65.4187 13.9013 65.168 13.512L63.32 10.6L64.88 11.792H62.232V9.912H64.136C64.5627 9.912 64.92 9.86133 65.208 9.76C65.5013 9.65333 65.7227 9.47467 65.872 9.224C66.0213 8.97333 66.096 8.62933 66.096 8.192C66.096 7.86667 66.048 7.60533 65.952 7.408C65.856 7.20533 65.7253 7.048 65.56 6.936C65.4 6.824 65.2187 6.74933 65.016 6.712C64.8187 6.67467 64.6187 6.656 64.416 6.656H60.832L62.704 5.008C62.704 5.65333 62.704 6.272 62.704 6.864C62.704 7.45067 62.704 8.104 62.704 8.824V12.28C62.704 12.9947 62.704 13.64 62.704 14.216C62.704 14.792 62.704 15.3867 62.704 16H60.12ZM76.238 16.216C75.0753 16.216 74.1393 16.0293 73.43 15.656C72.726 15.2827 72.214 14.752 71.894 14.064C71.574 13.3707 71.414 12.5547 71.414 11.616C71.414 11.408 71.414 11.1333 71.414 10.792C71.414 10.4453 71.414 10.0667 71.414 9.656C71.414 9.24 71.414 8.824 71.414 8.408C71.414 7.672 71.414 7.008 71.414 6.416C71.414 5.824 71.414 5.216 71.414 4.592H74.038C74.038 5.216 74.038 5.824 74.038 6.416C74.038 7.008 74.038 7.672 74.038 8.408V11.472C74.038 12.016 74.1127 12.48 74.262 12.864C74.4113 13.248 74.646 13.5413 74.966 13.744C75.2913 13.9467 75.7127 14.048 76.23 14.048C76.7527 14.048 77.1713 13.9467 77.486 13.744C77.806 13.5413 78.0353 13.248 78.174 12.864C78.318 12.48 78.39 12.0133 78.39 11.464V8.408C78.39 7.672 78.39 7.008 78.39 6.416C78.39 5.824 78.39 5.216 78.39 4.592H81.014C81.014 5.216 81.014 5.824 81.014 6.416C81.014 7.008 81.014 7.672 81.014 8.408C81.014 8.824 81.014 9.24267 81.014 9.664C81.014 10.08 81.014 10.4613 81.014 10.808C81.014 11.1547 81.014 11.4267 81.014 11.624C81.014 12.5627 80.846 13.376 80.51 14.064C80.174 14.752 79.654 15.2827 78.95 15.656C78.246 16.0293 77.342 16.216 76.238 16.216ZM99.9313 16C99.9313 15.3867 99.9313 14.792 99.9313 14.216C99.9313 13.64 99.9313 12.9947 99.9313 12.28V8.408C99.9313 7.672 99.9313 7.008 99.9313 6.416C99.9313 5.824 99.9313 5.216 99.9313 4.592H102.571C102.571 5.216 102.571 5.824 102.571 6.416C102.571 7.008 102.571 7.672 102.571 8.408V12.28C102.571 12.9947 102.571 13.64 102.571 14.216C102.571 14.792 102.571 15.3867 102.571 16H99.9313ZM92.8192 16C92.8192 15.3867 92.8192 14.792 92.8192 14.216C92.8192 13.64 92.8192 12.9947 92.8192 12.28V8.408C92.8192 7.672 92.8192 7.008 92.8192 6.416C92.8192 5.824 92.8192 5.216 92.8192 4.592H95.4513C95.4513 5.216 95.4513 5.824 95.4513 6.416C95.4513 7.008 95.4513 7.672 95.4513 8.408V12.28C95.4513 12.9947 95.4513 13.64 95.4513 14.216C95.4513 14.792 95.4513 15.3867 95.4513 16H92.8192ZM94.7313 11.352V9.16H100.707V11.352H94.7313Z" fill="#1D1C1D"/>
<path fill-rule="evenodd" clip-rule="evenodd" d="M87.2667 9.23579V3.54199L83 11.3063H86.7333V17.0001L91 9.23579H87.2667Z" fill="#1D1C1D"/>
<path d="M59.472 32C59.696 31.3867 59.928 30.7413 60.168 30.064C60.4133 29.3867 60.648 28.744 60.872 28.136L62.288 24.216C62.5387 23.512 62.768 22.8773 62.976 22.312C63.184 21.7413 63.392 21.168 63.6 20.592H65.504C65.712 21.1787 65.9173 21.7547 66.12 22.32C66.3227 22.8853 66.5493 23.52 66.8 24.224L68.208 28.152C68.432 28.7813 68.6613 29.4293 68.896 30.096C69.136 30.7573 69.3653 31.392 69.584 32H68.08C67.8507 31.3333 67.6133 30.648 67.368 29.944C67.128 29.2347 66.9013 28.568 66.688 27.944L64.608 21.896H64.472L62.376 27.888C62.1467 28.5387 61.9093 29.2213 61.664 29.936C61.4187 30.6453 61.176 31.3333 60.936 32H59.472ZM61.584 29.136L61.712 28H67.488L67.592 29.136H61.584ZM72.1669 32C72.1669 31.3653 72.1669 30.7547 72.1669 30.168C72.1669 29.5813 72.1669 28.936 72.1669 28.232V24.408C72.1669 23.688 72.1669 23.032 72.1669 22.44C72.1669 21.8427 72.1669 21.2267 72.1669 20.592H73.4709C74.1535 21.552 74.8095 22.4773 75.4389 23.368C76.0682 24.2587 76.6895 25.136 77.3029 26L79.7749 29.488H79.8949V24.408C79.8949 23.688 79.8949 23.032 79.8949 22.44C79.8949 21.8427 79.8949 21.2267 79.8949 20.592H81.2709C81.2709 21.2267 81.2709 21.8427 81.2709 22.44C81.2709 23.032 81.2709 23.688 81.2709 24.408V28.232C81.2709 28.936 81.2709 29.5813 81.2709 30.168C81.2709 30.7547 81.2709 31.3653 81.2709 32H79.9829C79.4175 31.2 78.8229 30.36 78.1989 29.48C77.5749 28.5947 76.8895 27.624 76.1429 26.568L73.6549 23.056H73.5429V28.232C73.5429 28.936 73.5429 29.5813 73.5429 30.168C73.5429 30.7547 73.5429 31.3653 73.5429 32H72.1669ZM83.8614 32C84.0854 31.3867 84.3174 30.7413 84.5574 30.064C84.8027 29.3867 85.0374 28.744 85.2614 28.136L86.6774 24.216C86.928 23.512 87.1574 22.8773 87.3654 22.312C87.5734 21.7413 87.7814 21.168 87.9894 20.592H89.8934C90.1014 21.1787 90.3067 21.7547 90.5094 22.32C90.712 22.8853 90.9387 23.52 91.1894 24.224L92.5974 28.152C92.8214 28.7813 93.0507 29.4293 93.2854 30.096C93.5254 30.7573 93.7547 31.392 93.9734 32H92.4694C92.24 31.3333 92.0027 30.648 91.7574 29.944C91.5174 29.2347 91.2907 28.568 91.0774 27.944L88.9974 21.896H88.8614L86.7654 27.888C86.536 28.5387 86.2987 29.2213 86.0534 29.936C85.808 30.6453 85.5654 31.3333 85.3254 32H83.8614ZM85.9734 29.136L86.1014 28H91.8774L91.9814 29.136H85.9734ZM96.5562 32C96.5562 31.3653 96.5562 30.7547 96.5562 30.168C96.5562 29.5813 96.5562 28.936 96.5562 28.232V24.408C96.5562 23.688 96.5562 23.032 96.5562 22.44C96.5562 21.8427 96.5562 21.2267 96.5562 20.592H98.0042C98.0042 21.2267 98.0042 21.8427 98.0042 22.44C98.0042 23.032 98.0042 23.688 98.0042 24.408V28.008C98.0042 28.712 98.0042 29.3573 98.0042 29.944C98.0042 30.5307 98.0042 31.1413 98.0042 31.776L97.4602 30.712H99.5562C100.164 30.712 100.7 30.712 101.164 30.712C101.634 30.712 102.066 30.712 102.46 30.712C102.86 30.712 103.268 30.712 103.684 30.712V32H96.5562ZM107.651 27.544L105.163 23.328C104.896 22.88 104.64 22.448 104.395 22.032C104.15 21.6107 103.867 21.1307 103.547 20.592H105.203C105.496 21.104 105.747 21.544 105.955 21.912C106.163 22.28 106.36 22.6293 106.547 22.96C106.734 23.2853 106.939 23.6453 107.163 24.04L108.267 25.984H108.411L109.483 24.112C109.723 23.6907 109.939 23.3093 110.131 22.968C110.328 22.6267 110.534 22.272 110.747 21.904C110.96 21.5307 111.211 21.0933 111.499 20.592H113.123C112.851 21.056 112.579 21.5173 112.307 21.976C112.04 22.4293 111.776 22.8773 111.515 23.32L109.027 27.544H107.651ZM107.619 32C107.619 31.3653 107.619 30.7547 107.619 30.168C107.619 29.5813 107.619 28.936 107.619 28.232V26.336H109.067V28.232C109.067 28.936 109.067 29.5813 109.067 30.168C109.067 30.7547 109.067 31.3653 109.067 32H107.619ZM118.592 32C118.592 31.3653 118.592 30.7547 118.592 30.168C118.592 29.5813 118.592 28.936 118.592 28.232V24.616C118.592 23.9013 118.592 23.248 118.592 22.656C118.592 22.0587 118.592 21.44 118.592 20.8L119.168 21.88H117.816C117.171 21.88 116.598 21.88 116.096 21.88C115.6 21.88 115.128 21.88 114.68 21.88V20.592H123.944V21.88C123.496 21.88 123.024 21.88 122.528 21.88C122.032 21.88 121.459 21.88 120.808 21.88H119.456L120.04 20.8C120.04 21.44 120.04 22.0587 120.04 22.656C120.04 23.248 120.04 23.9013 120.04 24.616V28.232C120.04 28.936 120.04 29.5813 120.04 30.168C120.04 30.7547 120.04 31.3653 120.04 32H118.592ZM126.578 32C126.578 31.3653 126.578 30.7547 126.578 30.168C126.578 29.5813 126.578 28.936 126.578 28.232V24.408C126.578 23.688 126.578 23.032 126.578 22.44C126.578 21.8427 126.578 21.2267 126.578 20.592H128.05C128.05 21.2267 128.05 21.8427 128.05 22.44C128.05 23.032 128.05 23.688 128.05 24.408V28.232C128.05 28.936 128.05 29.5813 128.05 30.168C128.05 30.7547 128.05 31.3653 128.05 32H126.578ZM136.831 32.176C135.93 32.176 135.116 32.0293 134.391 31.736C133.671 31.4427 133.058 31.032 132.551 30.504C132.044 29.9707 131.655 29.3467 131.383 28.632C131.116 27.912 130.983 27.128 130.983 26.28C130.983 25.128 131.22 24.1093 131.695 23.224C132.17 22.3333 132.828 21.6373 133.671 21.136C134.514 20.6347 135.495 20.384 136.615 20.384C136.994 20.384 137.362 20.4107 137.719 20.464C138.076 20.5173 138.415 20.5893 138.735 20.68C139.055 20.7707 139.351 20.8693 139.623 20.976C139.895 21.0827 140.13 21.192 140.327 21.304L140.199 22.696C139.783 22.4507 139.378 22.2533 138.983 22.104C138.594 21.9493 138.21 21.8373 137.831 21.768C137.458 21.6987 137.092 21.664 136.735 21.664C135.914 21.664 135.183 21.8507 134.543 22.224C133.903 22.5973 133.399 23.1307 133.031 23.824C132.668 24.512 132.487 25.3333 132.487 26.288C132.487 26.9227 132.58 27.52 132.767 28.08C132.959 28.64 133.242 29.1333 133.615 29.56C133.994 29.9867 134.46 30.3227 135.015 30.568C135.575 30.808 136.226 30.928 136.967 30.928C137.239 30.928 137.511 30.912 137.783 30.88C138.055 30.8427 138.324 30.7867 138.591 30.712C138.858 30.6373 139.119 30.5387 139.375 30.416C139.636 30.288 139.892 30.1387 140.143 29.968L140.255 31.344C140.031 31.488 139.783 31.6133 139.511 31.72C139.244 31.8267 138.962 31.9147 138.663 31.984C138.37 32.048 138.068 32.096 137.759 32.128C137.45 32.16 137.14 32.176 136.831 32.176ZM146.568 32.176C146.094 32.176 145.614 32.1307 145.128 32.04C144.648 31.9547 144.203 31.848 143.792 31.72C143.387 31.5867 143.059 31.4533 142.808 31.32L142.944 29.952C143.302 30.1493 143.672 30.3227 144.056 30.472C144.446 30.616 144.84 30.728 145.24 30.808C145.646 30.888 146.059 30.928 146.48 30.928C146.955 30.928 147.382 30.864 147.76 30.736C148.144 30.6027 148.446 30.3947 148.664 30.112C148.888 29.824 149 29.448 149 28.984C149 28.5787 148.886 28.2453 148.656 27.984C148.427 27.7173 148.094 27.488 147.656 27.296C147.224 27.104 146.699 26.912 146.08 26.72C145.355 26.4907 144.736 26.2427 144.224 25.976C143.712 25.7093 143.32 25.3813 143.048 24.992C142.782 24.5973 142.648 24.096 142.648 23.488C142.648 22.896 142.787 22.3653 143.064 21.896C143.347 21.4267 143.766 21.0587 144.32 20.792C144.875 20.52 145.563 20.384 146.384 20.384C146.726 20.384 147.062 20.408 147.392 20.456C147.728 20.504 148.048 20.5707 148.352 20.656C148.656 20.736 148.934 20.8267 149.184 20.928C149.435 21.0293 149.648 21.1333 149.824 21.24L149.68 22.616C149.355 22.3973 149.011 22.216 148.648 22.072C148.286 21.9227 147.926 21.8133 147.568 21.744C147.211 21.6693 146.88 21.632 146.576 21.632C146.144 21.632 145.747 21.696 145.384 21.824C145.022 21.952 144.728 22.1493 144.504 22.416C144.286 22.6773 144.176 23.016 144.176 23.432C144.176 23.7947 144.27 24.096 144.456 24.336C144.643 24.576 144.936 24.792 145.336 24.984C145.742 25.1707 146.262 25.3653 146.896 25.568C147.814 25.856 148.534 26.1493 149.056 26.448C149.584 26.7413 149.958 27.0827 150.176 27.472C150.4 27.8613 150.512 28.3387 150.512 28.904C150.512 29.528 150.374 30.0853 150.096 30.576C149.824 31.0667 149.398 31.456 148.816 31.744C148.235 32.032 147.486 32.176 146.568 32.176Z" fill="#1D1C1D"/>
</svg>