<?xml version="1.0" standalone="no"?><!DOCTYPE svg PUBLIC "-//W3C//DTD SVG 1.1//EN" "http://www.w3.org/Graphics/SVG/1.1/DTD/svg11.dtd"><svg t="1697368414231" class="icon" viewBox="0 0 1024 1024" version="1.1" xmlns="http://www.w3.org/2000/svg" p-id="10152" xmlns:xlink="http://www.w3.org/1999/xlink" width="128" height="128"><path d="M26.517928 697.625498l81.593626 138.709163c8.159363 16.318725 28.557769 24.478088 48.956175 20.398407l93.832669-32.63745c36.717131 32.63745 77.513944 53.035857 122.390439 69.354581l20.398406 97.912351c4.079681 20.398406 20.398406 32.63745 40.796813 32.63745h159.107569c20.398406 0 36.717131-12.239044 40.796813-32.63745l20.398407-97.912351c44.876494-16.318725 85.673307-40.796813 122.390438-69.354581l93.832669 32.63745c20.398406 8.159363 36.717131 0 48.956175-20.398407l77.513945-138.709163c8.159363-16.318725 8.159363-36.717131-8.159363-48.956175l-73.434263-65.274901c4.079681-24.478088 4.079681-44.876494 4.079681-69.354581 0-24.478088 0-48.956175-4.079681-69.354582l73.434263-65.2749c12.239044-12.239044 16.318725-32.63745 8.159363-48.956176l-77.513945-138.709163c-8.159363-16.318725-28.557769-24.478088-48.956175-20.398406L777.179283 203.984064c-36.717131-32.63745-77.513944-53.035857-122.390438-69.354582L634.390438 36.717131c-4.079681-20.398406-20.398406-32.63745-40.796813-32.63745h-159.107569c-20.398406 0-36.717131 12.239044-40.796813 32.63745l-20.398406 89.752989c-44.876494 16.318725-85.673307 40.796813-122.390439 69.354581l-93.832669-28.557769c-20.398406-4.079681-40.796813 0-48.956175 20.398407L26.517928 326.374502c-8.159363 12.239044-4.079681 36.717131 8.159363 48.956175l73.434263 65.274901c-4.079681 20.398406-8.159363 44.876494-8.159363 69.354581 0 24.478088 0 48.956175 8.159363 69.354582L34.677291 644.589641c-12.239044 16.318725-16.318725 36.717131-8.159363 53.035857zM471.203187 224.38247v77.513944c-24.478088 12.239044-40.796813 40.796813-40.796812 69.354582 0 44.876494 36.717131 81.593625 81.593625 81.593626s81.593625-36.717131 81.593625-81.593626c0-28.557769-16.318725-57.115538-40.796812-69.354582V224.38247c142.788845 20.398406 248.860558 138.709163 248.860558 285.577689 0 28.557769-4.079681 57.115538-12.239044 85.673307H613.992032c-16.318725-24.478088-40.796813-40.796813-69.354582-40.796813-44.876494 0-81.593625 36.717131-81.593625 81.593626s36.717131 81.593625 81.593625 81.593625c28.557769 0 57.115538-16.318725 69.354582-40.796812h138.709163c-53.035857 73.434263-138.709163 122.390438-236.621514 122.390438-159.10757 0-289.657371-130.549801-289.65737-289.657371-4.079681-146.868526 101.992032-269.258964 244.780876-285.577689z" p-id="10153" fill="#000000"></path></svg>